<?xml version="1.0" encoding="UTF-8"?>
<svg xmlns="http://www.w3.org/2000/svg" fill="none" stroke="none">
	<defs></defs>
	<g fill="#44FF44" fill-rule="evenodd" stroke="#444444" stroke-width="0.5" stroke-linecap="round" stroke-linejoin="round">
		<path d="M 0,0 M 5,195 L 5,175 M 5,175 L 25,175 M 25,168 L 25,166 M 25,166 L 28,166 M 28,166 L 28,175 M 28,175 L 26,175 M 26,175 L 26,168 M 26,168 L 25,168 M 29,175 L 29,172 M 29,172 L 32,169 M 32,169 L 32,168 M 32,168 L 29,168 M 29,168 L 29,166 M 29,166 L 33,166 M 33,166 L 34,167 M 34,167 L 34,170 M 34,170 L 31,173 M 31,173 L 34,173 M 34,173 L 34,175 M 34,175 L 29,175 M 35,175 L 40,175 M 40,175 L 40,166 M 40,166 L 35,166 M 35,166 L 35,168 M 35,168 L 38,168 M 38,168 L 38,169 M 38,169 L 36,170 M 36,170 L 38,171 M 38,171 L 38,173 M 38,173 L 35,173 M 35,173 L 35,175 M 44,175 L 44,172 M 44,172 L 41,172 M 41,172 L 41,171 M 41,171 L 45,166 M 45,166 L 46,166 M 46,166 L 46,175 M 46,175 L 44,175 M 47,175 L 52,175 M 52,175 L 52,170 M 52,170 L 49,168 M 49,168 L 52,168 M 52,168 L 52,166 M 52,166 L 47,166 M 47,166 L 47,169 M 47,169 L 50,171 M 50,171 L 50,173 M 50,173 L 47,173 M 47,173 L 47,175 M 53,174 L 53,167 M 53,167 L 54,166 M 54,166 L 58,166 M 58,166 L 58,168 M 58,168 L 55,168 M 55,168 L 55,170 M 55,170 L 57,170 M 57,170 L 58,171 M 58,171 L 58,174 M 58,174 L 57,175 M 57,175 L 54,175 M 54,175 L 53,174 M 61,175 L 61,171 M 61,171 L 62,168 M 62,168 L 59,168 M 59,168 L 59,166 M 59,166 L 64,166 M 64,166 L 64,167 M 64,167 L 63,171 M 63,171 L 63,175 M 63,175 L 61,175 M 65,174 L 65,171 M 65,171 L 66,170 M 66,170 L 65,169 M 65,169 L 65,167 M 65,167 L 66,166 M 66,166 L 69,166 M 69,166 L 70,167 M 70,167 L 70,169 M 70,169 L 69,170 M 69,170 L 70,171 M 70,171 L 70,174 M 70,174 L 69,175 M 69,175 L 66,175 M 66,175 L 65,174 M 74,175 L 74,170 M 74,170 L 72,170 M 72,170 L 71,169 M 71,169 L 71,167 M 71,167 L 72,166 M 72,166 L 75,166 M 75,166 L 76,167 M 76,167 L 76,175 M 76,175 L 74,175 M 77,172 L 77,169 M 77,169 L 79,166 M 79,166 L 80,166 M 80,166 L 82,169 M 82,169 L 82,172 M 82,172 L 80,175 M 80,175 L 79,175 M 79,175 L 77,172 M 83,175 L 89,175 M 89,175 L 86,169.804 M 86,169.804 L 83,175 M 90,175 L 92,175 M 92,175 L 92,169 M 92,169 L 90,169 M 90,169 L 90,175 M 93,175 L 97,175 M 97,175 L 97,167 M 97,167 L 93,167 M 93,167 L 93,169 M 93,169 L 95,169 M 95,169 L 95,173 M 95,173 L 93,173 M 93,173 L 93,175 M 98,175 L 102,175 M 102,175 L 102,171 M 102,171 L 98,171 M 98,171 L 98,175 M 103,175 L 123,175 M 123,175 L 126.536,178.536 M 126.536,178.536 L 130.071,175 M 130.071,175 L 126.536,171.464 M 126.536,171.464 L 123,175 M 5,150 L 11,150 M 11,150 L 8,144.804 M 8,144.804 L 5.000,150 M 15,150 L 15,147 M 15,147 L 12,147 M 12,147 L 12,146 M 12,146 L 16,141 M 16,141 L 17,141 M 17,141 L 17,150 M 17,150 L 15,150 M 18,150 L 18,147 M 18,147 L 21,144 M 21,144 L 21,143 M 21,143 L 18,143 M 18,143 L 18,141 M 18,141 L 22,141 M 22,141 L 23,142 M 23,142 L 23,145 M 23,145 L 20,148 M 20,148 L 23,148 M 23,148 L 23,150 M 23,150 L 18,150 M 28,150 L 30,150 M 30,150 L 30,144 M 30,144 L 28,144 M 28,144 L 28,150 M 31,150 L 31,147 M 31,147 L 34,144 M 34,144 L 34,143 M 34,143 L 31,143 M 31,143 L 31,141 M 31,141 L 35,141 M 35,141 L 36,142 M 36,142 L 36,145 M 36,145 L 33,148 M 33,148 L 36,148 M 36,148 L 36,150 M 36,150 L 31,150 M 37,149 L 37,146 M 37,146 L 38,145 M 38,145 L 37,144 M 37,144 L 37,142 M 37,142 L 38,141 M 38,141 L 41,141 M 41,141 L 42,142 M 42,142 L 42,144 M 42,144 L 41,145 M 41,145 L 42,146 M 42,146 L 42,149 M 42,149 L 41,150 M 41,150 L 38,150 M 38,150 L 37,149 M 43,147 L 43,144 M 43,144 L 45,141 M 45,141 L 46,141 M 46,141 L 48,144 M 48,144 L 48,147 M 48,147 L 46,150 M 46,150 L 45,150 M 45,150 L 43,147 M 53,150 L 57,150 M 57,150 L 57,142 M 57,142 L 53,142 M 53,142 L 53,144 M 53,144 L 55,144 M 55,144 L 55,148 M 55,148 L 53,148 M 53,148 L 53,150 M 60,150 L 60,146 M 60,146 L 61,143 M 61,143 L 58,143 M 58,143 L 58,141 M 58,141 L 63,141 M 63,141 L 63,142 M 63,142 L 62,146 M 62,146 L 62,150 M 62,150 L 60,150 Z"></path>
	</g>
</svg>